<?xml version="1.0" standalone="no"?>
<!DOCTYPE svg PUBLIC "-//W3C//DTD SVG 20010904//EN"
 "http://www.w3.org/TR/2001/REC-SVG-20010904/DTD/svg10.dtd">
<svg version="1.0" xmlns="http://www.w3.org/2000/svg"
 width="512.000000pt" height="512.000000pt" viewBox="0 0 512.000000 512.000000"
 preserveAspectRatio="xMidYMid meet">
<metadata>
Created by potrace 1.14, written by Peter Selinger 2001-2017
</metadata>
<g transform="translate(0.000000,512.000000) scale(0.100000,-0.100000)"
fill="#000000" stroke="none">
<path d="M415 5110 c-183 -38 -330 -170 -391 -350 -18 -53 -19 -134 -19 -2200
0 -2066 1 -2147 19 -2200 52 -154 168 -274 322 -332 l59 -23 2155 0 2155 0 59
23 c154 58 270 178 322 332 18 53 19 134 19 2200 0 2066 -1 2147 -19 2200 -52
154 -168 274 -322 332 l-59 23 -2130 1 c-1172 1 -2148 -2 -2170 -6z m1085
-995 c15 -8 37 -29 48 -47 11 -18 226 -546 478 -1173 309 -770 471 -1186 499
-1283 l42 -142 31 126 c25 99 129 370 494 1287 401 1007 468 1167 500 1202
l37 40 204 3 205 3 -66 -163 c-37 -90 -326 -799 -642 -1576 l-575 -1412 -194
2 -194 3 -639 1565 c-351 861 -638 1568 -638 1573 0 4 86 7 190 7 149 0 197
-3 220 -15z"/>
</g>
</svg>
