<svg width="113" height="29" viewBox="0 0 113 29" fill="none" xmlns="http://www.w3.org/2000/svg">
<path d="M0.619751 24.5595V5.34303H10.8868C13.5406 5.34303 15.4988 5.81887 16.7616 6.77054C18.0244 7.70391 18.6558 8.90266 18.6558 10.3668C18.6558 11.3367 18.3813 12.2061 17.8322 12.9747C17.3015 13.7251 16.5237 14.3199 15.4988 14.7591C14.4739 15.1983 13.2111 15.418 11.7104 15.418L12.2595 13.9355C13.7602 13.9355 15.0504 14.146 16.1302 14.5669C17.2283 14.9879 18.0702 15.601 18.6558 16.4062C19.2597 17.1932 19.5617 18.1449 19.5617 19.2613C19.5617 20.9267 18.8663 22.2261 17.4754 23.1595C16.1028 24.0928 14.0896 24.5595 11.4359 24.5595H0.619751ZM6.98864 20.0299H10.8868C11.6006 20.0299 12.1313 19.9018 12.4791 19.6456C12.8451 19.3894 13.0281 19.0142 13.0281 18.5201C13.0281 18.0259 12.8451 17.6507 12.4791 17.3945C12.1313 17.1383 11.6006 17.0102 10.8868 17.0102H6.54941V12.7277H10.0084C10.7404 12.7277 11.2712 12.6087 11.6006 12.3708C11.9483 12.1146 12.1222 11.7577 12.1222 11.3001C12.1222 10.8243 11.9483 10.4674 11.6006 10.2295C11.2712 9.99159 10.7404 9.87263 10.0084 9.87263H6.98864V20.0299Z" fill="url(#paint0_linear_807_3596)"/>
<path d="M22.4013 24.5595V5.34303H28.88V24.5595H22.4013Z" fill="url(#paint1_linear_807_3596)"/>
<path d="M36.7206 24.5595V10.3668H31.0929V5.34303H48.827V10.3668H43.1993V24.5595H36.7206Z" fill="url(#paint2_linear_807_3596)"/>
<path d="M51.0587 24.5595V5.34303H61.3258C63.9795 5.34303 65.9378 5.81887 67.2006 6.77054C68.4634 7.70391 69.0948 8.90266 69.0948 10.3668C69.0948 11.3367 68.8203 12.2061 68.2712 12.9747C67.7405 13.7251 66.9627 14.3199 65.9378 14.7591C64.9129 15.1983 63.6501 15.418 62.1494 15.418L62.6984 13.9355C64.1992 13.9355 65.4894 14.146 66.5692 14.5669C67.6673 14.9879 68.5091 15.601 69.0948 16.4062C69.6987 17.1932 70.0007 18.1449 70.0007 19.2613C70.0007 20.9267 69.3053 22.2261 67.9144 23.1595C66.5417 24.0928 64.5286 24.5595 61.8749 24.5595H51.0587ZM57.4276 20.0299H61.3258C62.0396 20.0299 62.5703 19.9018 62.9181 19.6456C63.2841 19.3894 63.4671 19.0142 63.4671 18.5201C63.4671 18.0259 63.2841 17.6507 62.9181 17.3945C62.5703 17.1383 62.0396 17.0102 61.3258 17.0102H56.9884V12.7277H60.4474C61.1794 12.7277 61.7102 12.6087 62.0396 12.3708C62.3873 12.1146 62.5612 11.7577 62.5612 11.3001C62.5612 10.8243 62.3873 10.4674 62.0396 10.2295C61.7102 9.99159 61.1794 9.87263 60.4474 9.87263H57.4276V20.0299Z" fill="url(#paint3_linear_807_3596)"/>
<path d="M100.04 24.5595V10.3668H94.4127V5.34303H112.147V10.3668H106.519V24.5595H100.04Z" fill="url(#paint4_linear_807_3596)"/>
<path d="M71.7573 14.4692C71.7573 19.7058 75.6747 24.0299 80.7435 24.6617H80.7576V20.6324C80.2381 20.5763 79.7185 20.464 79.2131 20.2955C78.6233 20.113 78.0477 19.8322 77.5422 19.4812L76.7278 18.9056C76.6155 18.8214 76.6014 18.681 76.6716 18.5687L77.809 16.9401C77.8932 16.8278 78.0336 16.8138 78.1459 16.884L78.9603 17.4596C79.2692 17.6702 79.6202 17.8386 79.9713 17.9509C80.224 18.0352 80.4908 18.1054 80.7576 18.1475V15.5643C79.2833 15.2835 77.7668 14.6377 77.0086 13.332C76.6857 12.7985 76.5453 12.1808 76.6014 11.5631C76.6576 10.9454 76.9103 10.3697 77.3035 9.89242C78.1319 8.88159 79.4377 8.41829 80.7435 8.2779V0.387848L78.0477 4.99272C74.3549 6.55108 71.7573 10.2013 71.7573 14.4692Z" fill="url(#paint5_linear_807_3596)"/>
<path d="M79.199 11.4788C79.536 11.0717 80.1257 10.8752 80.7435 10.7769V13.0653C80.0836 12.9109 79.4096 12.616 79.1288 12.1247C79.0726 12.0264 79.0305 11.9141 79.0446 11.8018C79.0586 11.6894 79.1288 11.5631 79.199 11.4788Z" fill="url(#paint6_linear_807_3596)"/>
<path d="M92.3133 14.4832C92.3133 9.16237 88.2695 4.79617 83.1024 4.26268H83.0884V8.3481C83.5377 8.41829 83.987 8.51657 84.4223 8.65696C85.012 8.83947 85.5877 9.12026 86.0931 9.47124L86.9075 10.0468C87.0199 10.1311 87.0339 10.2715 86.9637 10.3838L85.8264 12.0123C85.7421 12.1247 85.6017 12.1387 85.4894 12.0685L84.675 11.4929C84.3661 11.2823 84.0151 11.1138 83.664 11.0015C83.4815 10.9454 83.299 10.8892 83.1024 10.8471V13.4303C84.5065 13.7251 85.9106 14.385 86.6267 15.6204C86.9496 16.1539 87.0901 16.7716 87.0339 17.3894C86.9777 18.0071 86.725 18.5827 86.3318 19.06C85.5455 20.0147 84.338 20.478 83.1024 20.6465V28.5646L85.7281 24.0721C89.5753 22.5839 92.3133 18.8495 92.3133 14.4832Z" fill="url(#paint7_linear_807_3596)"/>
<path d="M84.4223 17.4736C84.1274 17.8386 83.636 18.0352 83.1024 18.1475V15.9574C83.6781 16.1258 84.2397 16.4066 84.4925 16.8418C84.5486 16.9261 84.5908 17.0384 84.5767 17.1507C84.5627 17.263 84.4925 17.3894 84.4223 17.4736Z" fill="url(#paint8_linear_807_3596)"/>
<defs>
<linearGradient id="paint0_linear_807_3596" x1="0.619751" y1="14.4973" x2="112.147" y2="14.4973" gradientUnits="userSpaceOnUse">
<stop stop-color="#1170FF"/>
<stop offset="1" stop-color="#11F1FF"/>
</linearGradient>
<linearGradient id="paint1_linear_807_3596" x1="0.619751" y1="14.4973" x2="112.147" y2="14.4973" gradientUnits="userSpaceOnUse">
<stop stop-color="#1170FF"/>
<stop offset="1" stop-color="#11F1FF"/>
</linearGradient>
<linearGradient id="paint2_linear_807_3596" x1="0.619751" y1="14.4973" x2="112.147" y2="14.4973" gradientUnits="userSpaceOnUse">
<stop stop-color="#1170FF"/>
<stop offset="1" stop-color="#11F1FF"/>
</linearGradient>
<linearGradient id="paint3_linear_807_3596" x1="0.619751" y1="14.4973" x2="112.147" y2="14.4973" gradientUnits="userSpaceOnUse">
<stop stop-color="#1170FF"/>
<stop offset="1" stop-color="#11F1FF"/>
</linearGradient>
<linearGradient id="paint4_linear_807_3596" x1="0.619751" y1="14.4973" x2="112.147" y2="14.4973" gradientUnits="userSpaceOnUse">
<stop stop-color="#1170FF"/>
<stop offset="1" stop-color="#11F1FF"/>
</linearGradient>
<linearGradient id="paint5_linear_807_3596" x1="0.619751" y1="14.4973" x2="112.147" y2="14.4973" gradientUnits="userSpaceOnUse">
<stop stop-color="#1170FF"/>
<stop offset="1" stop-color="#11F1FF"/>
</linearGradient>
<linearGradient id="paint6_linear_807_3596" x1="0.619751" y1="14.4973" x2="112.147" y2="14.4973" gradientUnits="userSpaceOnUse">
<stop stop-color="#1170FF"/>
<stop offset="1" stop-color="#11F1FF"/>
</linearGradient>
<linearGradient id="paint7_linear_807_3596" x1="0.619751" y1="14.4973" x2="112.147" y2="14.4973" gradientUnits="userSpaceOnUse">
<stop stop-color="#1170FF"/>
<stop offset="1" stop-color="#11F1FF"/>
</linearGradient>
<linearGradient id="paint8_linear_807_3596" x1="0.619751" y1="14.4973" x2="112.147" y2="14.4973" gradientUnits="userSpaceOnUse">
<stop stop-color="#1170FF"/>
<stop offset="1" stop-color="#11F1FF"/>
</linearGradient>
</defs>
</svg>
