<?xml version="1.0" encoding="utf-8"?><svg viewBox="0 0 29 24" xmlns="http://www.w3.org/2000/svg" xmlns:xlink="http://www.w3.org/1999/xlink"><style>:root>svg{display:none}:root>svg:target{display:block}</style><svg fill="none" viewBox="0 0 24 24" id="facebook" xmlns="http://www.w3.org/2000/svg"><g clip-path="url(#aclip0_901_2915)"><path d="M12.062 0C5.4 0 0 5.401 0 12.062c0 6.047 4.455 11.04 10.259 11.913v-8.717H7.274v-3.17h2.985v-2.11c0-3.493 1.701-5.026 4.604-5.026 1.39 0 2.127.104 2.474.15V7.87h-1.98c-1.232 0-1.662 1.17-1.662 2.486v1.733h3.611l-.49 3.17h-3.121V24c5.887-.798 10.429-5.831 10.429-11.938C24.124 5.4 18.724 0 12.062 0z" fill="#fff"/></g><defs><clipPath id="aclip0_901_2915"><path fill="#fff" d="M0 0h24v24H0z"/></clipPath></defs></svg><svg fill="none" viewBox="0 0 24 24" id="instagram" xmlns="http://www.w3.org/2000/svg"><g clip-path="url(#bclip0_901_2904)" fill="#fff"><path d="M12 2.163c3.206 0 3.582.014 4.85.071 1.171.053 1.805.248 2.229.415.562.219.962.476 1.381.895.42.42.682.82.896 1.382.162.424.362 1.057.415 2.23.057 1.266.071 1.643.071 4.849 0 3.206-.014 3.582-.071 4.85-.053 1.171-.248 1.805-.415 2.229-.219.562-.476.962-.896 1.381-.419.42-.819.681-1.381.896-.424.162-1.058.362-2.23.414-1.267.058-1.643.072-4.849.072-3.206 0-3.582-.015-4.85-.072-1.171-.052-1.805-.247-2.229-.414a3.726 3.726 0 01-1.382-.896c-.419-.419-.68-.82-.895-1.381-.162-.424-.362-1.058-.415-2.23-.057-1.267-.071-1.643-.071-4.85 0-3.205.014-3.582.071-4.849.053-1.172.248-1.805.415-2.23.219-.561.476-.962.895-1.38.42-.42.82-.682 1.382-.896.424-.162 1.058-.362 2.23-.415 1.267-.062 1.648-.071 4.849-.071zM12 0C8.742 0 8.332.014 7.05.071 5.774.13 4.902.333 4.14.63a5.85 5.85 0 00-2.125 1.386A5.952 5.952 0 00.63 4.14c-.296.762-.5 1.634-.558 2.915C.014 8.332 0 8.742 0 12s.014 3.668.071 4.95c.058 1.276.262 2.148.558 2.915a5.85 5.85 0 001.386 2.125 5.952 5.952 0 002.125 1.386c.762.295 1.634.5 2.915.557 1.282.058 1.687.072 4.95.072s3.668-.014 4.95-.072c1.276-.057 2.148-.262 2.915-.557a5.849 5.849 0 002.124-1.386 5.952 5.952 0 001.387-2.125c.295-.762.5-1.634.557-2.915.057-1.282.072-1.687.072-4.95s-.015-3.668-.072-4.95c-.057-1.276-.262-2.148-.557-2.915a5.85 5.85 0 00-1.387-2.125A5.953 5.953 0 0019.87.624c-.762-.295-1.634-.5-2.916-.557C15.668.014 15.258 0 12 0z"/><path d="M12 5.84a6.165 6.165 0 10.002 12.331A6.165 6.165 0 0012 5.841zm0 10.162a4.001 4.001 0 110-8.003 4.001 4.001 0 010 8.003zM18.407 7.031a1.439 1.439 0 100-2.877 1.439 1.439 0 000 2.877z"/></g><defs><clipPath id="bclip0_901_2904"><path fill="#fff" d="M0 0h24v24H0z"/></clipPath></defs></svg><svg fill="none" viewBox="0 0 24 24" id="telegram" xmlns="http://www.w3.org/2000/svg"><path fill-rule="evenodd" clip-rule="evenodd" d="M24 12c0 6.627-5.373 12-12 12S0 18.627 0 12 5.373 0 12 0s12 5.373 12 12zM12.43 8.859c-1.167.485-3.5 1.49-6.998 3.014-.568.226-.866.447-.893.663-.046.366.412.51 1.034.705.085.027.173.054.263.084.613.199 1.437.432 1.865.441.389.008.823-.152 1.302-.48 3.268-2.207 4.955-3.322 5.061-3.346.075-.017.179-.039.249.024.07.062.063.18.056.212-.046.193-1.84 1.862-2.77 2.726-.29.269-.495.46-.537.504-.094.097-.19.19-.282.279-.57.548-.996.96.024 1.632.49.323.882.59 1.273.856.427.291.853.581 1.405.943.14.092.274.187.405.28.497.355.944.673 1.496.623.32-.03.651-.331.82-1.23.397-2.126 1.179-6.73 1.36-8.628a2.117 2.117 0 00-.02-.472.506.506 0 00-.172-.325c-.143-.117-.365-.142-.465-.14-.451.008-1.143.249-4.476 1.635z" fill="#fff"/></svg><svg fill="none" viewBox="0 0 29 24" id="twitter" xmlns="http://www.w3.org/2000/svg"><path d="M25.202 6.395c.017.238.017.476.017.716 0 7.31-5.565 15.74-15.74 15.74v-.005A15.66 15.66 0 011 20.366a11.108 11.108 0 008.187-2.293 5.539 5.539 0 01-5.168-3.841c.829.16 1.683.127 2.497-.096A5.532 5.532 0 012.08 8.714v-.07c.769.428 1.63.666 2.51.692A5.539 5.539 0 012.878 1.95a15.7 15.7 0 0011.401 5.78 5.538 5.538 0 019.427-5.045 11.1 11.1 0 003.513-1.344 5.552 5.552 0 01-2.432 3.06 11.001 11.001 0 003.176-.871 11.237 11.237 0 01-2.76 2.865z" fill="#fff"/></svg><svg fill="none" viewBox="0 0 24 24" id="whatsapp" xmlns="http://www.w3.org/2000/svg"><path d="M20.503 3.551A11.947 11.947 0 0012.05.09C5.464.09.103 5.384.1 11.893c0 2.08.55 4.11 1.595 5.9L0 23.912l6.335-1.642c1.745.94 3.71 1.436 5.71 1.437h.005c6.586 0 11.947-5.296 11.95-11.804a11.66 11.66 0 00-3.497-8.35zM12.05 21.712h-.004a10.01 10.01 0 01-5.055-1.367l-.363-.213-3.759.974 1.003-3.62-.236-.371a9.7 9.7 0 01-1.518-5.222c.002-5.409 4.458-9.81 9.936-9.81a9.928 9.928 0 017.022 2.877 9.693 9.693 0 012.906 6.941c-.002 5.41-4.457 9.811-9.932 9.811zm5.448-7.348c-.298-.147-1.766-.86-2.04-.96-.274-.098-.473-.147-.672.149-.199.295-.771.96-.945 1.156-.175.197-.349.221-.647.074-.299-.148-1.26-.46-2.401-1.464-.888-.782-1.487-1.748-1.661-2.043-.175-.296-.019-.455.13-.602.135-.132.3-.345.448-.517.15-.172.2-.295.299-.492.1-.197.05-.37-.025-.517-.075-.147-.672-1.6-.92-2.19-.243-.575-.49-.497-.672-.506a12.12 12.12 0 00-.573-.01c-.199 0-.522.073-.796.369-.273.295-1.045 1.008-1.045 2.46s1.07 2.854 1.22 3.051c.149.197 2.105 3.176 5.1 4.454.713.304 1.269.485 1.702.621.716.224 1.366.193 1.881.117.574-.085 1.767-.714 2.015-1.403.25-.689.25-1.279.174-1.402-.074-.123-.273-.197-.572-.345z" fill="#fff"/></svg><svg fill="none" viewBox="0 0 29 24" id="youtube" xmlns="http://www.w3.org/2000/svg"><g clip-path="url(#fclip0_901_2913)"><path d="M28.403 5.025a3.634 3.634 0 00-2.556-2.556c-2.27-.621-11.347-.621-11.347-.621s-9.077 0-11.347.597a3.708 3.708 0 00-2.556 2.58C0 7.295 0 12 0 12s0 4.73.597 6.975a3.634 3.634 0 002.556 2.556c2.293.621 11.347.621 11.347.621s9.077 0 11.347-.597A3.634 3.634 0 0028.403 19C29 16.73 29 12.024 29 12.024s.024-4.73-.597-7zM11.61 16.348V7.652L19.157 12l-7.549 4.348z" fill="#fff"/></g><defs><clipPath id="fclip0_901_2913"><path fill="#fff" d="M0 0h29v24H0z"/></clipPath></defs></svg></svg>